<svg width="700px" height="1873px"
 viewBox="0.00 0.00 151.05 404.00" xmlns="http://www.w3.org/2000/svg" xmlns:xlink="http://www.w3.org/1999/xlink">
<g id="graph0" class="graph" transform="scale(1.0 1.0) rotate(0) translate(4 400)">
<polygon fill="white" stroke="transparent" points="-4,4 -4,-400 147.05,-400 147.05,4 -4,4"/>
<!-- 0 -->
<g id="node1" class="node">
<title>0</title>
<ellipse fill="red" stroke="red" cx="61" cy="-378" rx="27" ry="18"/>
<text text-anchor="middle" x="61" y="-374.3" font-family="Times New Roman,serif" font-size="14.00">0</text>
</g>
<!-- 1 -->
<g id="node2" class="node">
<title>1</title>
<ellipse fill="blue" stroke="blue" cx="61" cy="-306" rx="27" ry="18"/>
<text text-anchor="middle" x="61" y="-302.3" font-family="Times New Roman,serif" font-size="14.00">1</text>
</g>
<!-- 0&#45;&#45;1 -->
<g id="edge1" class="edge">
<title>0&#45;&#45;1</title>
<path fill="none" stroke="black" d="M61,-359.7C61,-348.85 61,-334.92 61,-324.1"/>
</g>
<!-- 2 -->
<g id="node3" class="node">
<title>2</title>
<ellipse fill="gold" stroke="gold" cx="116" cy="-234" rx="27" ry="18"/>
<text text-anchor="middle" x="116" y="-230.3" font-family="Times New Roman,serif" font-size="14.00">2</text>
</g>
<!-- 0&#45;&#45;2 -->
<g id="edge2" class="edge">
<title>0&#45;&#45;2</title>
<path fill="none" stroke="black" d="M73.75,-361.7C81.56,-351.59 91.15,-337.71 97,-324 107.17,-300.17 112.11,-270.35 114.34,-251.99"/>
</g>
<!-- 6 -->
<g id="node7" class="node">
<title>6</title>
<ellipse fill="blue" stroke="blue" cx="99" cy="-90" rx="27" ry="18"/>
<text text-anchor="middle" x="99" y="-86.3" font-family="Times New Roman,serif" font-size="14.00">6</text>
</g>
<!-- 0&#45;&#45;6 -->
<g id="edge3" class="edge">
<title>0&#45;&#45;6</title>
<path fill="none" stroke="black" d="M47.25,-362.07C39.04,-352.1 29.38,-338.25 25,-324 1.49,-247.53 -11.56,-215.16 25,-144 30.89,-132.54 59.28,-114.19 79.13,-102.37"/>
</g>
<!-- 1&#45;&#45;2 -->
<g id="edge4" class="edge">
<title>1&#45;&#45;2</title>
<path fill="none" stroke="black" d="M72.93,-289.81C82.16,-278.07 94.87,-261.89 104.09,-250.16"/>
</g>
<!-- 3 -->
<g id="node4" class="node">
<title>3</title>
<ellipse fill="red" stroke="red" cx="61" cy="-162" rx="27" ry="18"/>
<text text-anchor="middle" x="61" y="-158.3" font-family="Times New Roman,serif" font-size="14.00">3</text>
</g>
<!-- 1&#45;&#45;3 -->
<g id="edge5" class="edge">
<title>1&#45;&#45;3</title>
<path fill="none" stroke="black" d="M61,-287.87C61,-260.58 61,-207.52 61,-180.19"/>
</g>
<!-- 2&#45;&#45;3 -->
<g id="edge6" class="edge">
<title>2&#45;&#45;3</title>
<path fill="none" stroke="black" d="M104.07,-217.81C94.84,-206.07 82.13,-189.89 72.91,-178.16"/>
</g>
<!-- 5 -->
<g id="node6" class="node">
<title>5</title>
<ellipse fill="red" stroke="red" cx="90" cy="-18" rx="27" ry="18"/>
<text text-anchor="middle" x="90" y="-14.3" font-family="Times New Roman,serif" font-size="14.00">5</text>
</g>
<!-- 2&#45;&#45;5 -->
<g id="edge7" class="edge">
<title>2&#45;&#45;5</title>
<path fill="none" stroke="black" d="M122.81,-216.42C134.04,-186.57 153.44,-122.2 135,-72 129.26,-56.36 116.63,-42.18 106.21,-32.43"/>
</g>
<!-- 2&#45;&#45;6 -->
<g id="edge8" class="edge">
<title>2&#45;&#45;6</title>
<path fill="none" stroke="black" d="M113.95,-215.87C110.68,-188.58 104.33,-135.52 101.06,-108.19"/>
</g>
<!-- 4 -->
<g id="node5" class="node">
<title>4</title>
<ellipse fill="blue" stroke="blue" cx="27" cy="-90" rx="27" ry="18"/>
<text text-anchor="middle" x="27" y="-86.3" font-family="Times New Roman,serif" font-size="14.00">4</text>
</g>
<!-- 3&#45;&#45;4 -->
<g id="edge9" class="edge">
<title>3&#45;&#45;4</title>
<path fill="none" stroke="black" d="M53.11,-144.76C47.7,-133.62 40.53,-118.87 35.08,-107.63"/>
</g>
<!-- 3&#45;&#45;6 -->
<g id="edge10" class="edge">
<title>3&#45;&#45;6</title>
<path fill="none" stroke="black" d="M69.81,-144.76C75.95,-133.46 84.11,-118.44 90.23,-107.15"/>
</g>
<!-- 4&#45;&#45;5 -->
<g id="edge11" class="edge">
<title>4&#45;&#45;5</title>
<path fill="none" stroke="black" d="M40.36,-74.15C51.05,-62.28 65.97,-45.7 76.66,-33.82"/>
</g>
</g>
</svg>
